<svg xmlns="http://www.w3.org/2000/svg" viewBox="0 0 512 512">
  <rect width="512" height="512" rx="80" fill="#faf7f2"/>
  <rect x="40" y="40" width="432" height="432" rx="60" fill="#faf7f2"/>
  <!-- Bordure terracotta gauche -->
  <rect x="56" y="80" width="8" height="352" rx="4" fill="#c4715a"/>
  <!-- Lignes de texte stylisées -->
  <rect x="88" y="120" width="280" height="12" rx="6" fill="#c4715a" opacity="0.9"/>
  <rect x="88" y="156" width="220" height="8" rx="4" fill="#2c2c2c" opacity="0.3"/>
  <rect x="88" y="176" width="260" height="8" rx="4" fill="#2c2c2c" opacity="0.3"/>
  <rect x="88" y="196" width="200" height="8" rx="4" fill="#2c2c2c" opacity="0.3"/>
  <!-- Séparateur -->
  <rect x="88" y="228" width="320" height="1" fill="#f0e6d8"/>
  <!-- Section projet -->
  <rect x="88" y="252" width="160" height="10" rx="5" fill="#c9973f" opacity="0.8"/>
  <!-- Tâches -->
  <circle cx="100" cy="290" r="7" fill="none" stroke="#c4715a" stroke-width="2.5"/>
  <rect x="118" y="284" width="180" height="8" rx="4" fill="#2c2c2c" opacity="0.25"/>
  <circle cx="100" cy="316" r="7" fill="#c4715a"/>
  <line x1="96" y1="316" x2="100" y2="320" stroke="white" stroke-width="2" stroke-linecap="round"/>
  <line x1="100" y1="320" x2="107" y2="312" stroke="white" stroke-width="2" stroke-linecap="round"/>
  <rect x="118" y="310" width="140" height="8" rx="4" fill="#2c2c2c" opacity="0.15"/>
  <circle cx="100" cy="342" r="7" fill="none" stroke="#c4715a" stroke-width="2.5"/>
  <rect x="118" y="336" width="200" height="8" rx="4" fill="#2c2c2c" opacity="0.25"/>
  <!-- Barre de progression -->
  <rect x="88" y="376" width="320" height="6" rx="3" fill="#f0e6d8"/>
  <rect x="88" y="376" width="200" height="6" rx="3" fill="#c4715a"/>
  <!-- Signature -->
  <text x="88" y="420" font-family="Georgia, serif" font-size="28" font-weight="bold" fill="#c4715a" opacity="0.7">Aq</text>
</svg>
